<svg width="1063" height="1793" viewBox="0 0 1063 1793" fill="none" xmlns="http://www.w3.org/2000/svg">
<mask id="mask0_1_2926" style="mask-type:luminance" maskUnits="userSpaceOnUse" x="0" y="911" width="711" height="882">
<path d="M0 911.615H710.667V1792.17H0V911.615Z" fill="white"/>
</mask>
<g mask="url(#mask0_1_2926)">
<path d="M412.141 1528.9L709.584 1231.45L390.693 912.568L68.8545 1234.4L-16.9632 2166.74C-22.8122 2228.48 -46.859 2280.51 -89.1403 2322.79L-430.474 2664.12L-224.286 2870.3L275.677 2370.34L339.969 1688.84C345.818 1624.48 369.865 1571.17 412.141 1528.9Z" fill="#666F9D"/>
</g>
<mask id="mask1_1_2926" style="mask-type:luminance" maskUnits="userSpaceOnUse" x="0" y="0" width="404" height="1793">
<path d="M0 0H404V1792.17H0V0Z" fill="white"/>
</mask>
<g mask="url(#mask1_1_2926)">
<path d="M-1090.21 2183.79C-1090.55 2143.19 -1074.77 2106.92 -1042.92 2075.07L-655.75 1687.9L-520.193 1823.45L-895.667 2198.9L-576.771 2517.82L-201.297 2142.35L-200.24 2143.41L-114.485 1234.4C-108.636 1170.05 -84.5889 1116.73 -42.3127 1074.46L266.838 765.312C298.682 733.464 334.922 717.698 375.588 718.021C384.875 718.104 393.864 719.234 402.692 720.958L-318.271 -0.00524902L-1800.42 1482.14L-1089.18 2193.39C-1089.41 2190.16 -1090.19 2187.08 -1090.21 2183.79Z" fill="#666F9D"/>
</g>
<mask id="mask2_1_2926" style="mask-type:luminance" maskUnits="userSpaceOnUse" x="478" y="1376" width="585" height="417">
<path d="M478.667 1376.95H1062.08V1792.17H478.667V1376.95Z" fill="white"/>
</mask>
<g mask="url(#mask2_1_2926)">
<path d="M855.896 1377.75L521.125 1712.52L479.323 2166.7L1062.08 1583.94L855.896 1377.75Z" fill="#666F9D"/>
</g>
</svg>
